<svg width="328" height="192" viewBox="0 0 328 192" fill="none" xmlns="http://www.w3.org/2000/svg">
<g clip-path="url(#clip0_1_461)">
<rect width="328" height="192" rx="15" fill="white"/>
<rect width="328" height="192" rx="15" fill="url(#paint0_linear_1_461)"/>
<path d="M66.5 43.5C38.5 37.5 10.5 54 0 63V0H148C132.5 17 94.5 49.5 66.5 43.5Z" fill="url(#paint1_linear_1_461)"/>
<path d="M110 101.87C43.6 94.2704 -0.5 116.037 -9.5 127.87L-19 165.37C3 144.315 57.8 112.238 63 152.37C69.5 202.535 145.5 182.87 149.5 165.37C153.5 147.87 242.5 185.37 228.5 127.87C214.5 70.3704 338 125.37 338 119.37V71.3704C328.167 54.3704 291.8 23.1704 225 34.3704C141.5 48.3704 193 111.37 110 101.87Z" fill="url(#paint2_linear_1_461)"/>
<path d="M20.8009 151.837H20.3397C20.3124 151.704 20.2647 151.588 20.1965 151.487C20.1295 151.387 20.0477 151.302 19.951 151.234C19.8555 151.165 19.7495 151.113 19.633 151.078C19.5164 151.043 19.3949 151.026 19.2685 151.026C19.0378 151.026 18.8289 151.084 18.6417 151.201C18.4557 151.317 18.3076 151.489 18.1972 151.716C18.0881 151.943 18.0336 152.221 18.0336 152.551C18.0336 152.881 18.0881 153.159 18.1972 153.386C18.3076 153.613 18.4557 153.785 18.6417 153.901C18.8289 154.018 19.0378 154.076 19.2685 154.076C19.3949 154.076 19.5164 154.059 19.633 154.024C19.7495 153.989 19.8555 153.938 19.951 153.869C20.0477 153.8 20.1295 153.715 20.1965 153.615C20.2647 153.513 20.3124 153.396 20.3397 153.265H20.8009C20.7662 153.46 20.703 153.634 20.6112 153.788C20.5195 153.941 20.4054 154.072 20.269 154.18C20.1326 154.287 19.9795 154.368 19.8097 154.424C19.641 154.479 19.4606 154.507 19.2685 154.507C18.9436 154.507 18.6547 154.428 18.4018 154.269C18.1489 154.111 17.9499 153.885 17.8048 153.592C17.6598 153.3 17.5872 152.953 17.5872 152.551C17.5872 152.149 17.6598 151.802 17.8048 151.509C17.9499 151.217 18.1489 150.991 18.4018 150.832C18.6547 150.674 18.9436 150.594 19.2685 150.594C19.4606 150.594 19.641 150.622 19.8097 150.678C19.9795 150.734 20.1326 150.816 20.269 150.924C20.4054 151.03 20.5195 151.16 20.6112 151.314C20.703 151.467 20.7662 151.641 20.8009 151.837ZM22.3273 154.522C22.1463 154.522 21.982 154.488 21.8345 154.42C21.6869 154.351 21.5698 154.251 21.483 154.121C21.3962 153.989 21.3528 153.83 21.3528 153.644C21.3528 153.481 21.385 153.348 21.4495 153.246C21.514 153.144 21.6002 153.063 21.708 153.005C21.8159 152.946 21.9349 152.903 22.0651 152.874C22.1965 152.845 22.3286 152.821 22.4612 152.804C22.6348 152.782 22.7755 152.765 22.8834 152.754C22.9925 152.741 23.0719 152.721 23.1215 152.692C23.1723 152.664 23.1977 152.614 23.1977 152.543V152.529C23.1977 152.345 23.1475 152.202 23.0471 152.101C22.9479 151.999 22.7972 151.948 22.5951 151.948C22.3856 151.948 22.2213 151.994 22.1023 152.086C21.9833 152.178 21.8996 152.276 21.8512 152.38L21.4346 152.231C21.509 152.057 21.6082 151.922 21.7322 151.826C21.8574 151.728 21.9938 151.659 22.1413 151.621C22.2901 151.581 22.4364 151.561 22.5803 151.561C22.672 151.561 22.7774 151.573 22.8964 151.595C23.0167 151.616 23.1326 151.66 23.2442 151.727C23.357 151.794 23.4506 151.895 23.525 152.03C23.5994 152.165 23.6366 152.346 23.6366 152.573V154.455H23.1977V154.068H23.1754C23.1456 154.13 23.096 154.197 23.0266 154.267C22.9572 154.338 22.8648 154.398 22.7495 154.448C22.6342 154.497 22.4935 154.522 22.3273 154.522ZM22.3943 154.128C22.5679 154.128 22.7142 154.094 22.8332 154.026C22.9535 153.958 23.044 153.869 23.1047 153.762C23.1667 153.654 23.1977 153.54 23.1977 153.421V153.02C23.1791 153.042 23.1382 153.062 23.075 153.081C23.013 153.098 22.9411 153.114 22.8592 153.127C22.7786 153.14 22.6999 153.151 22.623 153.161C22.5474 153.17 22.486 153.177 22.4389 153.183C22.3248 153.198 22.2182 153.222 22.119 153.256C22.0211 153.288 21.9417 153.337 21.881 153.403C21.8215 153.467 21.7917 153.555 21.7917 153.667C21.7917 153.819 21.8481 153.935 21.961 154.013C22.075 154.09 22.2195 154.128 22.3943 154.128ZM24.4377 154.455V151.599H24.8617V152.03H24.8915C24.9436 151.889 25.0378 151.774 25.1742 151.686C25.3106 151.598 25.4643 151.554 25.6354 151.554C25.6676 151.554 25.7079 151.555 25.7563 151.556C25.8046 151.557 25.8412 151.559 25.866 151.561V152.008C25.8511 152.004 25.817 151.999 25.7637 151.991C25.7117 151.982 25.6565 151.978 25.5982 151.978C25.4593 151.978 25.3354 152.007 25.2263 152.065C25.1184 152.123 25.0328 152.202 24.9696 152.304C24.9076 152.404 24.8766 152.519 24.8766 152.648V154.455H24.4377ZM27.378 154.515C27.14 154.515 26.9298 154.455 26.7475 154.334C26.5653 154.213 26.4227 154.042 26.3198 153.821C26.2169 153.599 26.1654 153.337 26.1654 153.034C26.1654 152.734 26.2169 152.474 26.3198 152.253C26.4227 152.033 26.5659 151.862 26.7494 151.742C26.9329 151.622 27.1449 151.561 27.3855 151.561C27.5714 151.561 27.7184 151.592 27.8262 151.654C27.9353 151.715 28.0184 151.785 28.0754 151.863C28.1337 151.94 28.179 152.003 28.2112 152.052H28.2484V150.646H28.6873V154.455H28.2633V154.016H28.2112C28.179 154.068 28.1331 154.134 28.0736 154.214C28.0141 154.292 27.9291 154.362 27.8188 154.424C27.7084 154.484 27.5615 154.515 27.378 154.515ZM27.4375 154.121C27.6136 154.121 27.7624 154.075 27.8839 153.983C28.0054 153.89 28.0977 153.762 28.161 153.598C28.2242 153.433 28.2558 153.243 28.2558 153.027C28.2558 152.814 28.2248 152.627 28.1628 152.467C28.1008 152.306 28.0091 152.181 27.8876 152.092C27.7661 152.001 27.6161 151.956 27.4375 151.956C27.2515 151.956 27.0966 152.004 26.9726 152.099C26.8498 152.193 26.7575 152.322 26.6955 152.484C26.6347 152.645 26.6043 152.826 26.6043 153.027C26.6043 153.23 26.6353 153.415 26.6973 153.581C26.7606 153.746 26.8536 153.878 26.9763 153.975C27.1003 154.072 27.254 154.121 27.4375 154.121ZM31.0845 154.455V150.646H31.5458V152.343H33.5766V150.646H34.0379V154.455H33.5766V152.752H31.5458V154.455H31.0845ZM36.0622 154.515C35.8043 154.515 35.5781 154.453 35.3834 154.331C35.19 154.208 35.0387 154.036 34.9296 153.816C34.8218 153.595 34.7678 153.337 34.7678 153.042C34.7678 152.744 34.8218 152.485 34.9296 152.263C35.0387 152.041 35.19 151.868 35.3834 151.746C35.5781 151.623 35.8043 151.561 36.0622 151.561C36.3201 151.561 36.5458 151.623 36.7392 151.746C36.9339 151.868 37.0851 152.041 37.193 152.263C37.3021 152.485 37.3566 152.744 37.3566 153.042C37.3566 153.337 37.3021 153.595 37.193 153.816C37.0851 154.036 36.9339 154.208 36.7392 154.331C36.5458 154.453 36.3201 154.515 36.0622 154.515ZM36.0622 154.121C36.2581 154.121 36.4193 154.07 36.5458 153.97C36.6722 153.869 36.7659 153.737 36.8266 153.574C36.8874 153.41 36.9177 153.233 36.9177 153.042C36.9177 152.851 36.8874 152.673 36.8266 152.508C36.7659 152.343 36.6722 152.21 36.5458 152.108C36.4193 152.007 36.2581 151.956 36.0622 151.956C35.8663 151.956 35.7052 152.007 35.5787 152.108C35.4522 152.21 35.3586 152.343 35.2979 152.508C35.2371 152.673 35.2067 152.851 35.2067 153.042C35.2067 153.233 35.2371 153.41 35.2979 153.574C35.3586 153.737 35.4522 153.869 35.5787 153.97C35.7052 154.07 35.8663 154.121 36.0622 154.121ZM38.4655 150.646V154.455H38.0266V150.646H38.4655ZM40.3481 154.515C40.11 154.515 39.8999 154.455 39.7176 154.334C39.5354 154.213 39.3928 154.042 39.2899 153.821C39.187 153.599 39.1355 153.337 39.1355 153.034C39.1355 152.734 39.187 152.474 39.2899 152.253C39.3928 152.033 39.536 151.862 39.7195 151.742C39.903 151.622 40.115 151.561 40.3555 151.561C40.5415 151.561 40.6884 151.592 40.7963 151.654C40.9054 151.715 40.9885 151.785 41.0455 151.863C41.1038 151.94 41.149 152.003 41.1813 152.052H41.2185V150.646H41.6574V154.455H41.2333V154.016H41.1813C41.149 154.068 41.1032 154.134 41.0436 154.214C40.9841 154.292 40.8992 154.362 40.7889 154.424C40.6785 154.484 40.5316 154.515 40.3481 154.515ZM40.4076 154.121C40.5837 154.121 40.7324 154.075 40.854 153.983C40.9755 153.89 41.0678 153.762 41.1311 153.598C41.1943 153.433 41.2259 153.243 41.2259 153.027C41.2259 152.814 41.1949 152.627 41.1329 152.467C41.0709 152.306 40.9792 152.181 40.8577 152.092C40.7362 152.001 40.5861 151.956 40.4076 151.956C40.2216 151.956 40.0666 152.004 39.9427 152.099C39.8199 152.193 39.7275 152.322 39.6656 152.484C39.6048 152.645 39.5744 152.826 39.5744 153.027C39.5744 153.23 39.6054 153.415 39.6674 153.581C39.7306 153.746 39.8236 153.878 39.9464 153.975C40.0704 154.072 40.2241 154.121 40.4076 154.121ZM43.7199 154.515C43.4446 154.515 43.2072 154.454 43.0076 154.333C42.8092 154.21 42.6561 154.039 42.5482 153.819C42.4416 153.599 42.3883 153.342 42.3883 153.049C42.3883 152.757 42.4416 152.499 42.5482 152.276C42.6561 152.051 42.8061 151.876 42.9983 151.751C43.1917 151.625 43.4173 151.561 43.6752 151.561C43.824 151.561 43.9709 151.586 44.116 151.636C44.2611 151.685 44.3931 151.766 44.5121 151.878C44.6312 151.988 44.726 152.134 44.7967 152.317C44.8673 152.499 44.9027 152.723 44.9027 152.99V153.176H42.7007V152.796H44.4563C44.4563 152.635 44.4241 152.491 44.3596 152.365C44.2964 152.238 44.2059 152.139 44.0881 152.065C43.9716 151.992 43.8339 151.956 43.6752 151.956C43.5004 151.956 43.3492 151.999 43.2214 152.086C43.095 152.172 42.9977 152.283 42.9295 152.421C42.8613 152.558 42.8272 152.706 42.8272 152.863V153.116C42.8272 153.332 42.8644 153.515 42.9388 153.665C43.0144 153.814 43.1192 153.927 43.2531 154.005C43.387 154.082 43.5426 154.121 43.7199 154.121C43.8352 154.121 43.9393 154.104 44.0323 154.072C44.1265 154.039 44.2077 153.989 44.2759 153.923C44.3441 153.856 44.3968 153.773 44.434 153.674L44.858 153.793C44.8134 153.937 44.7384 154.064 44.633 154.173C44.5276 154.28 44.3974 154.365 44.2425 154.426C44.0875 154.485 43.9133 154.515 43.7199 154.515ZM45.5703 154.455V151.599H45.9944V152.03H46.0241C46.0762 151.889 46.1704 151.774 46.3068 151.686C46.4432 151.598 46.5969 151.554 46.768 151.554C46.8003 151.554 46.8406 151.555 46.8889 151.556C46.9373 151.557 46.9739 151.559 46.9987 151.561V152.008C46.9838 152.004 46.9497 151.999 46.8964 151.991C46.8443 151.982 46.7891 151.978 46.7308 151.978C46.592 151.978 46.468 152.007 46.3589 152.065C46.251 152.123 46.1655 152.202 46.1022 152.304C46.0402 152.404 46.0092 152.519 46.0092 152.648V154.455H45.5703Z" fill="black" fill-opacity="0.7"/>
<path d="M23.174 162.246C23.1271 161.83 22.9337 161.507 22.5937 161.279C22.2538 161.047 21.8259 160.932 21.3102 160.932C20.9409 160.932 20.6215 160.99 20.3519 161.107C20.0823 161.222 19.8727 161.38 19.7233 161.582C19.5767 161.781 19.5035 162.009 19.5035 162.263C19.5035 162.477 19.5533 162.662 19.6529 162.817C19.7555 162.973 19.8888 163.103 20.0529 163.209C20.22 163.311 20.3988 163.398 20.5892 163.468C20.7797 163.535 20.9629 163.591 21.1387 163.635L22.0179 163.864C22.3051 163.934 22.5996 164.029 22.9014 164.149C23.2033 164.269 23.4832 164.428 23.7411 164.624C23.9989 164.82 24.207 165.064 24.3653 165.354C24.5264 165.644 24.607 165.991 24.607 166.396C24.607 166.905 24.4752 167.358 24.2114 167.754C23.9506 168.15 23.5711 168.462 23.0729 168.69C22.5776 168.919 21.9783 169.033 21.275 169.033C20.601 169.033 20.0178 168.926 19.5254 168.712C19.0331 168.498 18.6477 168.195 18.3693 167.802C18.0909 167.407 17.9371 166.938 17.9078 166.396H19.2705C19.2969 166.721 19.4024 166.992 19.587 167.209C19.7745 167.423 20.0134 167.582 20.3035 167.688C20.5966 167.791 20.9175 167.842 21.2662 167.842C21.6501 167.842 21.9915 167.782 22.2904 167.662C22.5923 167.538 22.8296 167.369 23.0026 167.152C23.1755 166.932 23.2619 166.675 23.2619 166.382C23.2619 166.116 23.1857 165.897 23.0333 165.727C22.8839 165.557 22.6802 165.417 22.4223 165.305C22.1673 165.194 21.8787 165.096 21.5563 165.011L20.4925 164.721C19.7716 164.524 19.2002 164.236 18.7782 163.855C18.3591 163.474 18.1496 162.97 18.1496 162.343C18.1496 161.824 18.2902 161.371 18.5716 160.984C18.8529 160.597 19.2339 160.297 19.7145 160.083C20.1951 159.866 20.7372 159.758 21.3409 159.758C21.9505 159.758 22.4882 159.865 22.9542 160.079C23.4231 160.293 23.7923 160.587 24.0619 160.962C24.3316 161.335 24.4722 161.762 24.4839 162.246H23.174ZM28.0896 169.033C27.6618 169.033 27.2749 168.954 26.9291 168.796C26.5833 168.635 26.3093 168.402 26.1071 168.097C25.9078 167.792 25.8082 167.418 25.8082 166.976C25.8082 166.595 25.8815 166.281 26.028 166.035C26.1745 165.789 26.3723 165.594 26.6214 165.45C26.8705 165.307 27.1489 165.198 27.4566 165.125C27.7643 165.052 28.0779 164.996 28.3973 164.958C28.8018 164.911 29.13 164.873 29.382 164.844C29.634 164.812 29.8172 164.76 29.9315 164.69C30.0458 164.62 30.1029 164.505 30.1029 164.347V164.316C30.1029 163.932 29.9945 163.635 29.7776 163.424C29.5637 163.213 29.2443 163.107 28.8193 163.107C28.3768 163.107 28.0281 163.206 27.7731 163.402C27.5211 163.595 27.3467 163.811 27.25 164.048L26.0148 163.767C26.1613 163.357 26.3753 163.025 26.6566 162.773C26.9409 162.518 27.2676 162.334 27.6369 162.22C28.0061 162.102 28.3944 162.044 28.8018 162.044C29.0714 162.044 29.3571 162.076 29.6589 162.14C29.9637 162.202 30.248 162.316 30.5117 162.483C30.7784 162.65 30.9967 162.889 31.1667 163.2C31.3367 163.508 31.4217 163.908 31.4217 164.4V168.884H30.1381V167.96H30.0853C30.0004 168.13 29.8729 168.298 29.7029 168.462C29.5329 168.626 29.3146 168.762 29.0479 168.87C28.7812 168.979 28.4618 169.033 28.0896 169.033ZM28.3754 167.978C28.7387 167.978 29.0494 167.906 29.3073 167.763C29.5681 167.619 29.7659 167.432 29.9007 167.2C30.0385 166.966 30.1073 166.715 30.1073 166.448V165.578C30.0604 165.625 29.9696 165.669 29.8348 165.71C29.7029 165.748 29.552 165.782 29.382 165.811C29.212 165.837 29.0465 165.862 28.8853 165.886C28.7241 165.906 28.5893 165.924 28.4809 165.938C28.2259 165.971 27.9929 166.025 27.7819 166.101C27.5739 166.177 27.4068 166.287 27.2808 166.431C27.1577 166.571 27.0962 166.759 27.0962 166.993C27.0962 167.319 27.2163 167.565 27.4566 167.732C27.6969 167.896 28.0032 167.978 28.3754 167.978ZM33.1723 168.884V162.132H34.4339V163.231H34.5174C34.6581 162.858 34.8882 162.568 35.2076 162.36C35.527 162.149 35.9095 162.044 36.3549 162.044C36.8062 162.044 37.1842 162.149 37.489 162.36C37.7967 162.571 38.0238 162.861 38.1704 163.231H38.2407C38.4019 162.87 38.6583 162.583 39.01 162.369C39.3616 162.152 39.7807 162.044 40.2672 162.044C40.8797 162.044 41.3793 162.236 41.7662 162.62C42.1559 163.003 42.3508 163.582 42.3508 164.356V168.884H41.0365V164.479C41.0365 164.022 40.9119 163.691 40.6628 163.486C40.4137 163.28 40.1163 163.178 39.7705 163.178C39.3426 163.178 39.01 163.31 38.7726 163.573C38.5352 163.834 38.4165 164.17 38.4165 164.58V168.884H37.1066V164.395C37.1066 164.029 36.9923 163.735 36.7637 163.512C36.5351 163.289 36.2377 163.178 35.8714 163.178C35.6223 163.178 35.3922 163.244 35.1812 163.376C34.9731 163.505 34.8046 163.685 34.6757 163.916C34.5497 164.148 34.4867 164.416 34.4867 164.721V168.884H33.1723ZM47.4939 168.884V159.881H48.8523V167.714H52.9316V168.884H47.4939ZM57.2197 169.02C56.5867 169.02 56.0343 168.875 55.5625 168.585C55.0907 168.295 54.7244 167.889 54.4635 167.367C54.2027 166.845 54.0723 166.236 54.0723 165.538C54.0723 164.838 54.2027 164.226 54.4635 163.701C54.7244 163.176 55.0907 162.769 55.5625 162.479C56.0343 162.189 56.5867 162.044 57.2197 162.044C57.8527 162.044 58.4051 162.189 58.877 162.479C59.3488 162.769 59.7151 163.176 59.9759 163.701C60.2367 164.226 60.3671 164.838 60.3671 165.538C60.3671 166.236 60.2367 166.845 59.9759 167.367C59.7151 167.889 59.3488 168.295 58.877 168.585C58.4051 168.875 57.8527 169.02 57.2197 169.02ZM57.2241 167.917C57.6344 167.917 57.9743 167.808 58.244 167.591C58.5136 167.374 58.7128 167.086 58.8418 166.725C58.9737 166.365 59.0396 165.968 59.0396 165.534C59.0396 165.103 58.9737 164.708 58.8418 164.347C58.7128 163.984 58.5136 163.692 58.244 163.472C57.9743 163.253 57.6344 163.143 57.2241 163.143C56.8109 163.143 56.468 163.253 56.1955 163.472C55.9259 163.692 55.7251 163.984 55.5933 164.347C55.4643 164.708 55.3998 165.103 55.3998 165.534C55.3998 165.968 55.4643 166.365 55.5933 166.725C55.7251 167.086 55.9259 167.374 56.1955 167.591C56.468 167.808 56.8109 167.917 57.2241 167.917ZM66.1114 166.083V162.132H67.4301V168.884H66.1378V167.714H66.0674C65.9121 168.075 65.663 168.375 65.3201 168.615C64.9802 168.853 64.5567 168.972 64.0498 168.972C63.616 168.972 63.2321 168.876 62.898 168.686C62.5669 168.492 62.3061 168.207 62.1156 167.829C61.928 167.451 61.8343 166.983 61.8343 166.426V162.132H63.1486V166.268C63.1486 166.728 63.2761 167.095 63.531 167.367C63.786 167.64 64.1172 167.776 64.5245 167.776C64.7707 167.776 65.0154 167.714 65.2586 167.591C65.5048 167.468 65.7084 167.282 65.8696 167.033C66.0337 166.784 66.1143 166.467 66.1114 166.083ZM69.1962 168.884V162.132H70.5105V168.884H69.1962ZM69.8599 161.09C69.6314 161.09 69.435 161.014 69.2709 160.861C69.1097 160.706 69.0291 160.521 69.0291 160.307C69.0291 160.09 69.1097 159.906 69.2709 159.753C69.435 159.598 69.6314 159.52 69.8599 159.52C70.0885 159.52 70.2834 159.598 70.4446 159.753C70.6087 159.906 70.6908 160.09 70.6908 160.307C70.6908 160.521 70.6087 160.706 70.4446 160.861C70.2834 161.014 70.0885 161.09 69.8599 161.09ZM77.3384 163.78L76.1471 163.991C76.0973 163.839 76.0181 163.694 75.9097 163.556C75.8042 163.418 75.6606 163.305 75.4789 163.217C75.2972 163.129 75.0701 163.086 74.7976 163.086C74.4254 163.086 74.1147 163.169 73.8657 163.336C73.6166 163.5 73.492 163.713 73.492 163.973C73.492 164.199 73.5755 164.381 73.7426 164.519C73.9096 164.656 74.1792 164.769 74.5514 164.857L75.624 165.103C76.2453 165.247 76.7083 165.468 77.0131 165.767C77.3178 166.066 77.4702 166.454 77.4702 166.932C77.4702 167.336 77.353 167.697 77.1186 168.013C76.8871 168.327 76.5632 168.573 76.1471 168.752C75.7339 168.931 75.2547 169.02 74.7097 169.02C73.9536 169.02 73.3367 168.859 72.859 168.536C72.3813 168.211 72.0883 167.749 71.9798 167.152L73.2502 166.958C73.3294 167.289 73.492 167.54 73.7382 167.71C73.9843 167.877 74.3052 167.96 74.7009 167.96C75.1317 167.96 75.476 167.871 75.7339 167.692C75.9918 167.511 76.1207 167.289 76.1207 167.029C76.1207 166.818 76.0416 166.64 75.8833 166.497C75.728 166.353 75.4892 166.245 75.1668 166.171L74.0239 165.921C73.3938 165.777 72.9279 165.549 72.626 165.235C72.3271 164.922 72.1776 164.524 72.1776 164.044C72.1776 163.645 72.289 163.297 72.5117 162.998C72.7345 162.699 73.0422 162.466 73.4349 162.299C73.8276 162.129 74.2774 162.044 74.7844 162.044C75.5141 162.044 76.0885 162.202 76.5075 162.518C76.9266 162.832 77.2036 163.253 77.3384 163.78Z" fill="black"/>
<path d="M114.444 154.455V150.646H116.742V151.056H114.905V152.343H116.623V152.752H114.905V154.046H116.772V154.455H114.444ZM117.842 151.599L118.526 152.767L119.21 151.599H119.716L118.794 153.027L119.716 154.455H119.21L118.526 153.347L117.842 154.455H117.336L118.243 153.027L117.336 151.599H117.842ZM120.342 155.527V151.599H120.766V152.052H120.819C120.851 152.003 120.895 151.94 120.952 151.863C121.011 151.785 121.094 151.715 121.202 151.654C121.311 151.592 121.458 151.561 121.644 151.561C121.885 151.561 122.097 151.622 122.28 151.742C122.464 151.862 122.607 152.033 122.71 152.253C122.813 152.474 122.864 152.734 122.864 153.034C122.864 153.337 122.813 153.599 122.71 153.821C122.607 154.042 122.464 154.213 122.282 154.334C122.1 154.455 121.89 154.515 121.652 154.515C121.468 154.515 121.321 154.484 121.211 154.424C121.101 154.362 121.016 154.292 120.956 154.214C120.897 154.134 120.851 154.068 120.819 154.016H120.781V155.527H120.342ZM120.774 153.027C120.774 153.243 120.806 153.433 120.869 153.598C120.932 153.762 121.024 153.89 121.146 153.983C121.267 154.075 121.416 154.121 121.592 154.121C121.776 154.121 121.929 154.072 122.052 153.975C122.176 153.878 122.269 153.746 122.331 153.581C122.394 153.415 122.425 153.23 122.425 153.027C122.425 152.826 122.394 152.645 122.332 152.484C122.272 152.322 122.179 152.193 122.055 152.099C121.933 152.004 121.778 151.956 121.592 151.956C121.414 151.956 121.264 152.001 121.142 152.092C121.021 152.181 120.929 152.306 120.867 152.467C120.805 152.627 120.774 152.814 120.774 153.027ZM123.534 154.455V151.599H123.973V154.455H123.534ZM123.757 151.123C123.671 151.123 123.598 151.093 123.536 151.035C123.475 150.977 123.445 150.907 123.445 150.825C123.445 150.743 123.475 150.673 123.536 150.615C123.598 150.557 123.671 150.527 123.757 150.527C123.843 150.527 123.916 150.557 123.976 150.615C124.038 150.673 124.069 150.743 124.069 150.825C124.069 150.907 124.038 150.977 123.976 151.035C123.916 151.093 123.843 151.123 123.757 151.123ZM124.777 154.455V151.599H125.201V152.03H125.23C125.282 151.889 125.377 151.774 125.513 151.686C125.649 151.598 125.803 151.554 125.974 151.554C126.007 151.554 126.047 151.555 126.095 151.556C126.144 151.557 126.18 151.559 126.205 151.561V152.008C126.19 152.004 126.156 151.999 126.103 151.991C126.051 151.982 125.995 151.978 125.937 151.978C125.798 151.978 125.674 152.007 125.565 152.065C125.457 152.123 125.372 152.202 125.309 152.304C125.247 152.404 125.216 152.519 125.216 152.648V154.455H124.777ZM127.836 154.515C127.561 154.515 127.323 154.454 127.124 154.333C126.925 154.21 126.772 154.039 126.664 153.819C126.558 153.599 126.504 153.342 126.504 153.049C126.504 152.757 126.558 152.499 126.664 152.276C126.772 152.051 126.922 151.876 127.114 151.751C127.308 151.625 127.533 151.561 127.791 151.561C127.94 151.561 128.087 151.586 128.232 151.636C128.377 151.685 128.509 151.766 128.628 151.878C128.747 151.988 128.842 152.134 128.913 152.317C128.983 152.499 129.019 152.723 129.019 152.99V153.176H126.817V152.796H128.572C128.572 152.635 128.54 152.491 128.476 152.365C128.412 152.238 128.322 152.139 128.204 152.065C128.088 151.992 127.95 151.956 127.791 151.956C127.617 151.956 127.465 151.999 127.338 152.086C127.211 152.172 127.114 152.283 127.046 152.421C126.977 152.558 126.943 152.706 126.943 152.863V153.116C126.943 153.332 126.98 153.515 127.055 153.665C127.13 153.814 127.235 153.927 127.369 154.005C127.503 154.082 127.659 154.121 127.836 154.121C127.951 154.121 128.055 154.104 128.148 154.072C128.243 154.039 128.324 153.989 128.392 153.923C128.46 153.856 128.513 153.773 128.55 153.674L128.974 153.793C128.93 153.937 128.854 154.064 128.749 154.173C128.644 154.28 128.514 154.365 128.359 154.426C128.204 154.485 128.029 154.515 127.836 154.515ZM131.71 152.238L131.316 152.35C131.291 152.284 131.254 152.22 131.206 152.158C131.159 152.095 131.094 152.043 131.012 152.002C130.931 151.961 130.826 151.941 130.698 151.941C130.523 151.941 130.378 151.981 130.261 152.062C130.146 152.141 130.088 152.242 130.088 152.365C130.088 152.474 130.128 152.56 130.207 152.623C130.287 152.687 130.411 152.739 130.579 152.782L131.003 152.886C131.259 152.948 131.449 153.042 131.574 153.17C131.699 153.297 131.762 153.46 131.762 153.659C131.762 153.823 131.715 153.969 131.621 154.098C131.528 154.227 131.397 154.329 131.23 154.403C131.063 154.478 130.868 154.515 130.646 154.515C130.355 154.515 130.114 154.452 129.923 154.325C129.732 154.199 129.611 154.014 129.56 153.771L129.977 153.667C130.016 153.821 130.091 153.936 130.202 154.013C130.313 154.09 130.459 154.128 130.639 154.128C130.843 154.128 131.006 154.085 131.126 153.998C131.247 153.91 131.308 153.804 131.308 153.682C131.308 153.582 131.273 153.499 131.204 153.432C131.135 153.364 131.028 153.313 130.884 153.28L130.408 153.168C130.146 153.106 129.954 153.01 129.831 152.88C129.71 152.749 129.649 152.584 129.649 152.387C129.649 152.226 129.694 152.083 129.785 151.959C129.877 151.836 130.001 151.738 130.159 151.668C130.318 151.597 130.497 151.561 130.698 151.561C130.981 151.561 131.203 151.623 131.364 151.747C131.526 151.871 131.642 152.035 131.71 152.238Z" fill="black" fill-opacity="0.7"/>
<path d="M117.983 169.033C117.288 169.03 116.695 168.847 116.202 168.484C115.71 168.12 115.333 167.591 115.073 166.897C114.812 166.202 114.681 165.365 114.681 164.387C114.681 163.411 114.812 162.577 115.073 161.885C115.336 161.194 115.714 160.666 116.207 160.303C116.702 159.94 117.294 159.758 117.983 159.758C118.671 159.758 119.262 159.941 119.754 160.307C120.247 160.671 120.623 161.198 120.884 161.89C121.148 162.579 121.28 163.411 121.28 164.387C121.28 165.368 121.149 166.207 120.888 166.901C120.628 167.593 120.251 168.122 119.759 168.488C119.266 168.851 118.674 169.033 117.983 169.033ZM117.983 167.859C118.592 167.859 119.068 167.562 119.411 166.967C119.757 166.372 119.93 165.512 119.93 164.387C119.93 163.639 119.851 163.008 119.693 162.492C119.537 161.973 119.313 161.581 119.02 161.314C118.73 161.044 118.384 160.91 117.983 160.91C117.376 160.91 116.9 161.208 116.554 161.806C116.208 162.404 116.034 163.264 116.031 164.387C116.031 165.137 116.109 165.771 116.264 166.29C116.422 166.806 116.646 167.197 116.936 167.464C117.227 167.728 117.575 167.859 117.983 167.859ZM122.901 168.884L126.83 161.112V161.046H122.285V159.881H128.237V161.085L124.32 168.884H122.901ZM133.212 159.459L130.311 170.238H129.137L132.038 159.459H133.212ZM134.311 168.884V167.899L137.357 164.743C137.683 164.4 137.951 164.099 138.162 163.842C138.376 163.581 138.535 163.333 138.641 163.099C138.746 162.864 138.799 162.615 138.799 162.351C138.799 162.052 138.729 161.795 138.588 161.578C138.447 161.358 138.256 161.189 138.012 161.072C137.769 160.952 137.495 160.892 137.19 160.892C136.868 160.892 136.587 160.958 136.346 161.09C136.106 161.222 135.921 161.408 135.792 161.648C135.663 161.888 135.599 162.17 135.599 162.492H134.302C134.302 161.944 134.428 161.465 134.68 161.055C134.932 160.644 135.278 160.326 135.718 160.101C136.157 159.872 136.657 159.758 137.217 159.758C137.782 159.758 138.28 159.871 138.711 160.096C139.145 160.319 139.483 160.624 139.727 161.011C139.97 161.395 140.092 161.828 140.092 162.312C140.092 162.646 140.029 162.973 139.903 163.292C139.779 163.612 139.564 163.968 139.256 164.36C138.949 164.75 138.521 165.223 137.973 165.78L136.184 167.653V167.719H140.237V168.884H134.311ZM144.896 159.758C145.298 159.761 145.693 159.834 146.083 159.978C146.473 160.121 146.824 160.356 147.138 160.681C147.455 161.006 147.707 161.446 147.894 162C148.085 162.551 148.181 163.236 148.184 164.057C148.184 164.845 148.105 165.547 147.947 166.163C147.789 166.775 147.562 167.292 147.266 167.714C146.972 168.136 146.616 168.457 146.197 168.677C145.778 168.897 145.306 169.007 144.782 169.007C144.246 169.007 143.769 168.901 143.353 168.69C142.937 168.479 142.599 168.188 142.338 167.815C142.077 167.44 141.914 167.01 141.85 166.523H143.191C143.279 166.91 143.457 167.223 143.727 167.464C143.999 167.701 144.351 167.82 144.782 167.82C145.441 167.82 145.956 167.533 146.325 166.958C146.694 166.381 146.88 165.575 146.883 164.541H146.813C146.66 164.793 146.47 165.009 146.241 165.191C146.016 165.373 145.762 165.513 145.481 165.613C145.199 165.713 144.899 165.763 144.58 165.763C144.061 165.763 143.589 165.635 143.164 165.38C142.739 165.125 142.401 164.775 142.149 164.33C141.897 163.884 141.771 163.376 141.771 162.804C141.771 162.236 141.9 161.72 142.158 161.257C142.418 160.794 142.782 160.428 143.248 160.158C143.717 159.885 144.266 159.752 144.896 159.758ZM144.901 160.901C144.558 160.901 144.249 160.986 143.973 161.156C143.701 161.323 143.485 161.55 143.327 161.837C143.169 162.121 143.089 162.438 143.089 162.787C143.089 163.135 143.166 163.452 143.318 163.736C143.473 164.017 143.684 164.242 143.951 164.409C144.221 164.573 144.528 164.655 144.874 164.655C145.132 164.655 145.372 164.605 145.595 164.505C145.818 164.406 146.013 164.268 146.18 164.092C146.347 163.913 146.477 163.711 146.571 163.486C146.665 163.26 146.712 163.023 146.712 162.773C146.712 162.442 146.633 162.135 146.474 161.85C146.319 161.566 146.105 161.337 145.832 161.165C145.56 160.989 145.249 160.901 144.901 160.901Z" fill="black"/>
<path d="M188.216 151.837H187.755C187.728 151.704 187.68 151.588 187.612 151.487C187.545 151.387 187.463 151.302 187.366 151.234C187.271 151.165 187.165 151.113 187.048 151.078C186.932 151.043 186.81 151.026 186.684 151.026C186.453 151.026 186.244 151.084 186.057 151.201C185.871 151.317 185.723 151.489 185.613 151.716C185.504 151.943 185.449 152.221 185.449 152.551C185.449 152.881 185.504 153.159 185.613 153.386C185.723 153.613 185.871 153.785 186.057 153.901C186.244 154.018 186.453 154.076 186.684 154.076C186.81 154.076 186.932 154.059 187.048 154.024C187.165 153.989 187.271 153.938 187.366 153.869C187.463 153.8 187.545 153.715 187.612 153.615C187.68 153.513 187.728 153.396 187.755 153.265H188.216C188.182 153.46 188.118 153.634 188.027 153.788C187.935 153.941 187.821 154.072 187.684 154.18C187.548 154.287 187.395 154.368 187.225 154.424C187.056 154.479 186.876 154.507 186.684 154.507C186.359 154.507 186.07 154.428 185.817 154.269C185.564 154.111 185.365 153.885 185.22 153.592C185.075 153.3 185.003 152.953 185.003 152.551C185.003 152.149 185.075 151.802 185.22 151.509C185.365 151.217 185.564 150.991 185.817 150.832C186.07 150.674 186.359 150.594 186.684 150.594C186.876 150.594 187.056 150.622 187.225 150.678C187.395 150.734 187.548 150.816 187.684 150.924C187.821 151.03 187.935 151.16 188.027 151.314C188.118 151.467 188.182 151.641 188.216 151.837ZM189.118 150.646L190.249 153.853H190.293L191.424 150.646H191.908L190.509 154.455H190.033L188.634 150.646H189.118ZM192.657 150.646L193.788 153.853H193.832L194.963 150.646H195.447L194.048 154.455H193.572L192.173 150.646H192.657Z" fill="black" fill-opacity="0.7"/>
<path d="M185.556 168.884V167.899L188.602 164.743C188.928 164.4 189.196 164.099 189.407 163.842C189.621 163.581 189.781 163.333 189.886 163.099C189.992 162.864 190.044 162.615 190.044 162.351C190.044 162.052 189.974 161.795 189.833 161.578C189.693 161.358 189.501 161.189 189.257 161.072C189.014 160.952 188.74 160.892 188.435 160.892C188.113 160.892 187.832 160.958 187.591 161.09C187.351 161.222 187.167 161.408 187.038 161.648C186.909 161.888 186.844 162.17 186.844 162.492H185.547C185.547 161.944 185.673 161.465 185.925 161.055C186.177 160.644 186.523 160.326 186.963 160.101C187.402 159.872 187.902 159.758 188.462 159.758C189.027 159.758 189.526 159.871 189.956 160.096C190.39 160.319 190.729 160.624 190.972 161.011C191.215 161.395 191.337 161.828 191.337 162.312C191.337 162.646 191.274 162.973 191.148 163.292C191.025 163.612 190.809 163.968 190.501 164.36C190.194 164.75 189.766 165.223 189.218 165.78L187.429 167.653V167.719H191.482V168.884H185.556ZM196.563 159.881V168.884H195.201V161.244H195.148L192.994 162.65V161.349L195.24 159.881H196.563ZM201.97 169.007C201.419 169.007 200.924 168.901 200.484 168.69C200.048 168.476 199.699 168.183 199.438 167.811C199.177 167.439 199.038 167.014 199.021 166.536H200.339C200.372 166.923 200.543 167.241 200.854 167.49C201.164 167.739 201.536 167.864 201.97 167.864C202.316 167.864 202.622 167.785 202.889 167.626C203.159 167.465 203.37 167.244 203.522 166.963C203.677 166.681 203.755 166.36 203.755 166C203.755 165.634 203.676 165.307 203.518 165.02C203.359 164.732 203.141 164.507 202.863 164.343C202.587 164.179 202.271 164.095 201.913 164.092C201.641 164.092 201.367 164.139 201.091 164.233C200.816 164.327 200.593 164.45 200.423 164.602L199.179 164.417L199.684 159.881H204.634V161.046H200.814L200.528 163.565H200.581C200.757 163.395 200.99 163.253 201.28 163.138C201.573 163.024 201.887 162.967 202.221 162.967C202.769 162.967 203.257 163.097 203.685 163.358C204.115 163.619 204.454 163.975 204.7 164.426C204.949 164.875 205.072 165.39 205.069 165.974C205.072 166.557 204.94 167.077 204.674 167.534C204.41 167.991 204.044 168.352 203.575 168.615C203.109 168.876 202.574 169.007 201.97 169.007Z" fill="black"/>
<path d="M21.4618 88.5602V97.5629H19.8309V90.1471H19.7782L17.6726 91.4922V89.9977L19.91 88.5602H21.4618ZM23.7476 97.5629V96.3848L26.873 93.3209C27.172 93.0191 27.4211 92.7509 27.6203 92.5165C27.8196 92.282 27.9691 92.0549 28.0687 91.8351C28.1683 91.6153 28.2182 91.3809 28.2182 91.1318C28.2182 90.8475 28.1537 90.6043 28.0248 90.4021C27.8958 90.1969 27.7185 90.0387 27.4929 89.9273C27.2672 89.816 27.0108 89.7603 26.7236 89.7603C26.4276 89.7603 26.1682 89.8218 25.9455 89.9449C25.7228 90.0651 25.5499 90.2365 25.4268 90.4592C25.3067 90.682 25.2466 90.9472 25.2466 91.2549H23.6949C23.6949 90.6834 23.8253 90.1867 24.0861 89.7647C24.3469 89.3427 24.7059 89.0159 25.1631 88.7844C25.6232 88.5529 26.1507 88.4371 26.7456 88.4371C27.3493 88.4371 27.8797 88.55 28.3369 88.7756C28.794 89.0013 29.1486 89.3105 29.4006 89.7031C29.6556 90.0958 29.7831 90.5442 29.7831 91.0483C29.7831 91.3853 29.7186 91.7164 29.5897 92.0417C29.4607 92.367 29.2336 92.7275 28.9083 93.1231C28.586 93.5187 28.1332 93.9979 27.55 94.5605L25.9983 96.1386V96.2002H29.9194V97.5629H23.7476ZM34.6669 97.686C34.0339 97.686 33.4712 97.5775 32.9789 97.3607C32.4895 97.1438 32.1026 96.842 31.8184 96.4551C31.5341 96.0683 31.3832 95.6214 31.3656 95.1144H33.0184C33.0331 95.3577 33.1137 95.5701 33.2602 95.7518C33.4067 95.9306 33.6016 96.0698 33.8448 96.1694C34.0881 96.2691 34.3606 96.3189 34.6625 96.3189C34.9848 96.3189 35.2706 96.2632 35.5196 96.1518C35.7687 96.0375 35.9636 95.8793 36.1043 95.6771C36.245 95.4749 36.3138 95.2419 36.3109 94.9781C36.3138 94.7056 36.2435 94.4653 36.0999 94.2572C35.9563 94.0492 35.7482 93.8865 35.4757 93.7693C35.2061 93.6521 34.8808 93.5935 34.4998 93.5935H33.7042V92.3362H34.4998C34.8134 92.3362 35.0874 92.282 35.3218 92.1736C35.5592 92.0652 35.7453 91.9128 35.8801 91.7164C36.0149 91.5172 36.0809 91.2871 36.0779 91.0263C36.0809 90.7713 36.0237 90.5501 35.9065 90.3625C35.7922 90.172 35.6295 90.024 35.4185 89.9185C35.2105 89.813 34.9658 89.7603 34.6844 89.7603C34.409 89.7603 34.154 89.8101 33.9196 89.9097C33.6851 90.0094 33.4961 90.1515 33.3525 90.3361C33.2089 90.5178 33.1327 90.7347 33.1239 90.9867H31.5546C31.5663 90.4827 31.7114 90.0402 31.9898 89.6592C32.2711 89.2753 32.6462 88.9764 33.1151 88.7624C33.584 88.5456 34.1101 88.4371 34.6932 88.4371C35.294 88.4371 35.8156 88.55 36.2581 88.7756C36.7036 88.9983 37.0479 89.2987 37.2912 89.6768C37.5344 90.0548 37.656 90.4724 37.656 90.9296C37.659 91.4366 37.5095 91.8615 37.2076 92.2044C36.9087 92.5472 36.516 92.7714 36.0296 92.8769V92.9473C36.6626 93.0352 37.1476 93.2696 37.4846 93.6506C37.8245 94.0286 37.993 94.499 37.9901 95.0617C37.9901 95.5657 37.8465 96.017 37.5593 96.4156C37.2751 96.8112 36.8824 97.1218 36.3812 97.3475C35.883 97.5732 35.3116 97.686 34.6669 97.686ZM39.3363 95.8925V94.5957L43.1563 88.5602H44.2377V90.4065H43.5783L41.0067 94.4814V94.5518H46.3389V95.8925H39.3363ZM43.6311 97.5629V95.4969L43.6486 94.9166V88.5602H45.1872V97.5629H43.6311Z" fill="black"/>
<path d="M59.4605 97.686C58.8744 97.686 58.3498 97.5761 57.8868 97.3563C57.4237 97.1336 57.056 96.8288 56.7834 96.442C56.5138 96.0551 56.3702 95.6126 56.3526 95.1144H57.9351C57.9644 95.4837 58.1242 95.7855 58.4143 96.02C58.7044 96.2515 59.0531 96.3672 59.4605 96.3672C59.7799 96.3672 60.0642 96.294 60.3133 96.1474C60.5624 96.0009 60.7587 95.7972 60.9023 95.5364C61.0459 95.2756 61.1162 94.9781 61.1133 94.6441C61.1162 94.3041 61.0445 94.0023 60.8979 93.7385C60.7514 93.4748 60.5507 93.2682 60.2957 93.1187C60.0407 92.9663 59.7477 92.8901 59.4165 92.8901C59.1469 92.8872 58.8817 92.937 58.6209 93.0396C58.3601 93.1422 58.1535 93.277 58.0011 93.444L56.5285 93.2022L56.9988 88.5602H62.2211V89.9229H58.3483L58.089 92.3099H58.1417C58.3088 92.1135 58.5447 91.9509 58.8495 91.8219C59.1542 91.6901 59.4883 91.6241 59.8517 91.6241C60.3968 91.6241 60.8833 91.7531 61.3111 92.011C61.739 92.2659 62.076 92.6176 62.3222 93.066C62.5683 93.5143 62.6914 94.0272 62.6914 94.6045C62.6914 95.1994 62.5537 95.7298 62.2782 96.1958C62.0057 96.6588 61.6262 97.0237 61.1397 97.2904C60.6562 97.5541 60.0964 97.686 59.4605 97.686ZM67.4609 97.686C67.0301 97.683 66.6096 97.6083 66.1993 97.4618C65.789 97.3123 65.4198 97.0706 65.0915 96.7365C64.7633 96.3995 64.5025 95.9526 64.3091 95.3958C64.1157 94.836 64.0204 94.1429 64.0234 93.3165C64.0234 92.5458 64.1054 91.8586 64.2695 91.2549C64.4336 90.6512 64.6695 90.1413 64.9773 89.7251C65.285 89.3061 65.6557 88.9866 66.0894 88.7668C66.5261 88.547 67.014 88.4371 67.5532 88.4371C68.1188 88.4371 68.6199 88.5485 69.0566 88.7712C69.4962 88.994 69.8508 89.2987 70.1204 89.6856C70.39 90.0695 70.557 90.5032 70.6215 90.9867H69.017C68.935 90.6409 68.7665 90.3655 68.5115 90.1603C68.2595 89.9522 67.94 89.8482 67.5532 89.8482C66.929 89.8482 66.4484 90.1193 66.1114 90.6614C65.7773 91.2036 65.6088 91.948 65.6059 92.8945H65.6674C65.811 92.6366 65.9971 92.4154 66.2257 92.2307C66.4543 92.0461 66.7121 91.904 66.9993 91.8044C67.2895 91.7018 67.5957 91.6505 67.9181 91.6505C68.4456 91.6505 68.9189 91.7765 69.3379 92.0285C69.7599 92.2806 70.094 92.6278 70.3402 93.0704C70.5863 93.5099 70.708 94.014 70.705 94.5825C70.708 95.1745 70.5732 95.7064 70.3006 96.1782C70.0281 96.6471 69.6486 97.0163 69.1621 97.286C68.6756 97.5556 68.1086 97.6889 67.4609 97.686ZM67.4521 96.3672C67.7715 96.3672 68.0573 96.2896 68.3093 96.1343C68.5613 95.9789 68.7606 95.7694 68.9071 95.5056C69.0537 95.2419 69.1255 94.9459 69.1225 94.6177C69.1255 94.2953 69.0551 94.0037 68.9115 93.7429C68.7709 93.4821 68.576 93.2755 68.3269 93.1231C68.0778 92.9707 67.7935 92.8945 67.4741 92.8945C67.2367 92.8945 67.0155 92.9399 66.8103 93.0308C66.6052 93.1216 66.4264 93.2477 66.274 93.4088C66.1216 93.5671 66.0015 93.7517 65.9136 93.9627C65.8286 94.1708 65.7846 94.3935 65.7817 94.6309C65.7846 94.9444 65.8579 95.2331 66.0015 95.4969C66.1451 95.7606 66.3429 95.9716 66.5949 96.1299C66.847 96.2881 67.1327 96.3672 67.4521 96.3672ZM72.5205 97.5629L76.3493 89.9845V89.9229H71.9051V88.5602H78.0373V89.9537L74.2129 97.5629H72.5205ZM82.4749 97.686C81.8214 97.686 81.2411 97.5761 80.7341 97.3563C80.2301 97.1365 79.8344 96.8361 79.5473 96.4551C79.263 96.0712 79.1223 95.6361 79.1253 95.1496C79.1223 94.7715 79.2044 94.4243 79.3714 94.1078C79.5385 93.7913 79.7641 93.5275 80.0484 93.3165C80.3356 93.1026 80.655 92.9663 81.0067 92.9077V92.8462C80.5436 92.7436 80.1685 92.5077 79.8813 92.1384C79.5971 91.7663 79.4564 91.3369 79.4593 90.8505C79.4564 90.3874 79.5853 89.9742 79.8462 89.6108C80.107 89.2474 80.4645 88.9617 80.9188 88.7536C81.373 88.5426 81.8917 88.4371 82.4749 88.4371C83.0522 88.4371 83.5665 88.5426 84.0178 88.7536C84.472 88.9617 84.8296 89.2474 85.0904 89.6108C85.3541 89.9742 85.486 90.3874 85.486 90.8505C85.486 91.3369 85.341 91.7663 85.0508 92.1384C84.7636 92.5077 84.3929 92.7436 83.9387 92.8462V92.9077C84.2904 92.9663 84.6069 93.1026 84.8882 93.3165C85.1725 93.5275 85.3981 93.7913 85.5651 94.1078C85.7351 94.4243 85.8201 94.7715 85.8201 95.1496C85.8201 95.6361 85.6765 96.0712 85.3893 96.4551C85.1021 96.8361 84.7065 97.1365 84.2024 97.3563C83.7013 97.5761 83.1255 97.686 82.4749 97.686ZM82.4749 96.4288C82.8119 96.4288 83.1049 96.3716 83.354 96.2573C83.6031 96.1401 83.7966 95.976 83.9343 95.765C84.072 95.554 84.1424 95.3108 84.1453 95.0353C84.1424 94.7481 84.0676 94.4946 83.9211 94.2748C83.7775 94.0521 83.5797 93.8777 83.3277 93.7517C83.0786 93.6257 82.7943 93.5627 82.4749 93.5627C82.1525 93.5627 81.8653 93.6257 81.6133 93.7517C81.3613 93.8777 81.162 94.0521 81.0155 94.2748C80.8719 94.4946 80.8015 94.7481 80.8045 95.0353C80.8015 95.3108 80.8689 95.554 81.0067 95.765C81.1444 95.9731 81.3378 96.1357 81.5869 96.2529C81.8389 96.3702 82.1349 96.4288 82.4749 96.4288ZM82.4749 92.3275C82.7503 92.3275 82.9936 92.2718 83.2046 92.1604C83.4185 92.0491 83.587 91.8937 83.7101 91.6945C83.8332 91.4952 83.8962 91.2651 83.8991 91.0043C83.8962 90.7464 83.8347 90.5208 83.7145 90.3274C83.5943 90.131 83.4273 89.9801 83.2134 89.8746C82.9994 89.7662 82.7533 89.7119 82.4749 89.7119C82.1906 89.7119 81.94 89.7662 81.7232 89.8746C81.5093 89.9801 81.3422 90.131 81.2221 90.3274C81.1048 90.5208 81.0477 90.7464 81.0506 91.0043C81.0477 91.2651 81.1063 91.4952 81.2265 91.6945C81.3495 91.8908 81.518 92.0461 81.732 92.1604C81.9488 92.2718 82.1965 92.3275 82.4749 92.3275Z" fill="black"/>
<path d="M99.523 88.5602V97.5629H97.8921V90.1471H97.8394L95.7338 91.4922V89.9977L97.9713 88.5602H99.523ZM101.809 97.5629V96.3848L104.934 93.3209C105.233 93.0191 105.482 92.7509 105.682 92.5165C105.881 92.282 106.03 92.0549 106.13 91.8351C106.23 91.6153 106.279 91.3809 106.279 91.1318C106.279 90.8475 106.215 90.6043 106.086 90.4021C105.957 90.1969 105.78 90.0387 105.554 89.9273C105.328 89.816 105.072 89.7603 104.785 89.7603C104.489 89.7603 104.229 89.8218 104.007 89.9449C103.784 90.0651 103.611 90.2365 103.488 90.4592C103.368 90.682 103.308 90.9472 103.308 91.2549H101.756C101.756 90.6834 101.886 90.1867 102.147 89.7647C102.408 89.3427 102.767 89.0159 103.224 88.7844C103.684 88.5529 104.212 88.4371 104.807 88.4371C105.41 88.4371 105.941 88.55 106.398 88.7756C106.855 89.0013 107.21 89.3105 107.462 89.7031C107.717 90.0958 107.844 90.5442 107.844 91.0483C107.844 91.3853 107.78 91.7164 107.651 92.0417C107.522 92.367 107.295 92.7275 106.97 93.1231C106.647 93.5187 106.194 93.9979 105.611 94.5605L104.059 96.1386V96.2002H107.981V97.5629H101.809ZM112.728 97.686C112.095 97.686 111.532 97.5775 111.04 97.3607C110.551 97.1438 110.164 96.842 109.88 96.4551C109.595 96.0683 109.444 95.6214 109.427 95.1144H111.08C111.094 95.3577 111.175 95.5701 111.321 95.7518C111.468 95.9306 111.663 96.0698 111.906 96.1694C112.149 96.2691 112.422 96.3189 112.724 96.3189C113.046 96.3189 113.332 96.2632 113.581 96.1518C113.83 96.0375 114.025 95.8793 114.166 95.6771C114.306 95.4749 114.375 95.2419 114.372 94.9781C114.375 94.7056 114.305 94.4653 114.161 94.2572C114.018 94.0492 113.809 93.8865 113.537 93.7693C113.267 93.6521 112.942 93.5935 112.561 93.5935H111.765V92.3362H112.561C112.875 92.3362 113.149 92.282 113.383 92.1736C113.62 92.0652 113.807 91.9128 113.941 91.7164C114.076 91.5172 114.142 91.2871 114.139 91.0263C114.142 90.7713 114.085 90.5501 113.968 90.3625C113.853 90.172 113.691 90.024 113.48 89.9185C113.272 89.813 113.027 89.7603 112.746 89.7603C112.47 89.7603 112.215 89.8101 111.981 89.9097C111.746 90.0094 111.557 90.1515 111.414 90.3361C111.27 90.5178 111.194 90.7347 111.185 90.9867H109.616C109.628 90.4827 109.773 90.0402 110.051 89.6592C110.332 89.2753 110.707 88.9764 111.176 88.7624C111.645 88.5456 112.171 88.4371 112.754 88.4371C113.355 88.4371 113.877 88.55 114.319 88.7756C114.765 88.9983 115.109 89.2987 115.352 89.6768C115.596 90.0548 115.717 90.4724 115.717 90.9296C115.72 91.4366 115.571 91.8615 115.269 92.2044C114.97 92.5472 114.577 92.7714 114.091 92.8769V92.9473C114.724 93.0352 115.209 93.2696 115.546 93.6506C115.886 94.0286 116.054 94.499 116.051 95.0617C116.051 95.5657 115.908 96.017 115.621 96.4156C115.336 96.8112 114.944 97.1218 114.442 97.3475C113.944 97.5732 113.373 97.686 112.728 97.686ZM117.398 95.8925V94.5957L121.218 88.5602H122.299V90.4065H121.64L119.068 94.4814V94.5518H124.4V95.8925H117.398ZM121.692 97.5629V95.4969L121.71 94.9166V88.5602H123.248V97.5629H121.692Z" fill="black"/>
<path d="M137.522 97.686C136.936 97.686 136.411 97.5761 135.948 97.3563C135.485 97.1336 135.117 96.8288 134.845 96.442C134.575 96.0551 134.431 95.6126 134.414 95.1144H135.996C136.026 95.4837 136.185 95.7855 136.475 96.02C136.766 96.2515 137.114 96.3672 137.522 96.3672C137.841 96.3672 138.125 96.294 138.374 96.1474C138.624 96.0009 138.82 95.7972 138.964 95.5364C139.107 95.2756 139.177 94.9781 139.175 94.6441C139.177 94.3041 139.106 94.0023 138.959 93.7385C138.813 93.4748 138.612 93.2682 138.357 93.1187C138.102 92.9663 137.809 92.8901 137.478 92.8901C137.208 92.8872 136.943 92.937 136.682 93.0396C136.421 93.1422 136.215 93.277 136.062 93.444L134.59 93.2022L135.06 88.5602H140.282V89.9229H136.41L136.15 92.3099H136.203C136.37 92.1135 136.606 91.9509 136.911 91.8219C137.215 91.6901 137.55 91.6241 137.913 91.6241C138.458 91.6241 138.944 91.7531 139.372 92.011C139.8 92.2659 140.137 92.6176 140.383 93.066C140.63 93.5143 140.753 94.0272 140.753 94.6045C140.753 95.1994 140.615 95.7298 140.339 96.1958C140.067 96.6588 139.687 97.0237 139.201 97.2904C138.717 97.5541 138.158 97.686 137.522 97.686ZM145.522 97.686C145.091 97.683 144.671 97.6083 144.261 97.4618C143.85 97.3123 143.481 97.0706 143.153 96.7365C142.825 96.3995 142.564 95.9526 142.37 95.3958C142.177 94.836 142.082 94.1429 142.085 93.3165C142.085 92.5458 142.167 91.8586 142.331 91.2549C142.495 90.6512 142.731 90.1413 143.038 89.7251C143.346 89.3061 143.717 88.9866 144.151 88.7668C144.587 88.547 145.075 88.4371 145.614 88.4371C146.18 88.4371 146.681 88.5485 147.118 88.7712C147.557 88.994 147.912 89.2987 148.182 89.6856C148.451 90.0695 148.618 90.5032 148.683 90.9867H147.078C146.996 90.6409 146.828 90.3655 146.573 90.1603C146.321 89.9522 146.001 89.8482 145.614 89.8482C144.99 89.8482 144.51 90.1193 144.173 90.6614C143.839 91.2036 143.67 91.948 143.667 92.8945H143.729C143.872 92.6366 144.058 92.4154 144.287 92.2307C144.515 92.0461 144.773 91.904 145.061 91.8044C145.351 91.7018 145.657 91.6505 145.979 91.6505C146.507 91.6505 146.98 91.7765 147.399 92.0285C147.821 92.2806 148.155 92.6278 148.401 93.0704C148.648 93.5099 148.769 94.014 148.766 94.5825C148.769 95.1745 148.634 95.7064 148.362 96.1782C148.089 96.6471 147.71 97.0163 147.223 97.286C146.737 97.5556 146.17 97.6889 145.522 97.686ZM145.513 96.3672C145.833 96.3672 146.118 96.2896 146.371 96.1343C146.623 95.9789 146.822 95.7694 146.968 95.5056C147.115 95.2419 147.187 94.9459 147.184 94.6177C147.187 94.2953 147.116 94.0037 146.973 93.7429C146.832 93.4821 146.637 93.2755 146.388 93.1231C146.139 92.9707 145.855 92.8945 145.535 92.8945C145.298 92.8945 145.077 92.9399 144.872 93.0308C144.666 93.1216 144.488 93.2477 144.335 93.4088C144.183 93.5671 144.063 93.7517 143.975 93.9627C143.89 94.1708 143.846 94.3935 143.843 94.6309C143.846 94.9444 143.919 95.2331 144.063 95.4969C144.206 95.7606 144.404 95.9716 144.656 96.1299C144.908 96.2881 145.194 96.3672 145.513 96.3672ZM150.582 97.5629L154.41 89.9845V89.9229H149.966V88.5602H156.098V89.9537L152.274 97.5629H150.582ZM160.536 97.686C159.883 97.686 159.302 97.5761 158.795 97.3563C158.291 97.1365 157.896 96.8361 157.608 96.4551C157.324 96.0712 157.184 95.6361 157.186 95.1496C157.184 94.7715 157.266 94.4243 157.433 94.1078C157.6 93.7913 157.825 93.5275 158.11 93.3165C158.397 93.1026 158.716 92.9663 159.068 92.9077V92.8462C158.605 92.7436 158.23 92.5077 157.943 92.1384C157.658 91.7663 157.518 91.3369 157.521 90.8505C157.518 90.3874 157.647 89.9742 157.907 89.6108C158.168 89.2474 158.526 88.9617 158.98 88.7536C159.434 88.5426 159.953 88.4371 160.536 88.4371C161.113 88.4371 161.628 88.5426 162.079 88.7536C162.533 88.9617 162.891 89.2474 163.152 89.6108C163.415 89.9742 163.547 90.3874 163.547 90.8505C163.547 91.3369 163.402 91.7663 163.112 92.1384C162.825 92.5077 162.454 92.7436 162 92.8462V92.9077C162.352 92.9663 162.668 93.1026 162.949 93.3165C163.234 93.5275 163.459 93.7913 163.626 94.1078C163.796 94.4243 163.881 94.7715 163.881 95.1496C163.881 95.6361 163.738 96.0712 163.451 96.4551C163.163 96.8361 162.768 97.1365 162.264 97.3563C161.763 97.5761 161.187 97.686 160.536 97.686ZM160.536 96.4288C160.873 96.4288 161.166 96.3716 161.415 96.2573C161.664 96.1401 161.858 95.976 161.996 95.765C162.133 95.554 162.204 95.3108 162.207 95.0353C162.204 94.7481 162.129 94.4946 161.982 94.2748C161.839 94.0521 161.641 93.8777 161.389 93.7517C161.14 93.6257 160.856 93.5627 160.536 93.5627C160.214 93.5627 159.927 93.6257 159.675 93.7517C159.422 93.8777 159.223 94.0521 159.077 94.2748C158.933 94.4946 158.863 94.7481 158.866 95.0353C158.863 95.3108 158.93 95.554 159.068 95.765C159.206 95.9731 159.399 96.1357 159.648 96.2529C159.9 96.3702 160.196 96.4288 160.536 96.4288ZM160.536 92.3275C160.812 92.3275 161.055 92.2718 161.266 92.1604C161.48 92.0491 161.648 91.8937 161.771 91.6945C161.894 91.4952 161.957 91.2651 161.96 91.0043C161.957 90.7464 161.896 90.5208 161.776 90.3274C161.656 90.131 161.489 89.9801 161.275 89.8746C161.061 89.7662 160.814 89.7119 160.536 89.7119C160.252 89.7119 160.001 89.7662 159.784 89.8746C159.57 89.9801 159.403 90.131 159.283 90.3274C159.166 90.5208 159.109 90.7464 159.112 91.0043C159.109 91.2651 159.168 91.4952 159.288 91.6945C159.411 91.8908 159.579 92.0461 159.793 92.1604C160.01 92.2718 160.258 92.3275 160.536 92.3275Z" fill="black"/>
<path d="M25.2963 26.925H23.9248C23.8721 26.6319 23.7739 26.374 23.6303 26.1513C23.4867 25.9286 23.3109 25.7395 23.1028 25.5842C22.8947 25.4289 22.6618 25.3117 22.4039 25.2326C22.1489 25.1534 21.8778 25.1139 21.5906 25.1139C21.0719 25.1139 20.6074 25.2443 20.1972 25.5051C19.7898 25.7659 19.4675 26.1484 19.2301 26.6524C18.9956 27.1565 18.8784 27.7719 18.8784 28.4987C18.8784 29.2313 18.9956 29.8497 19.2301 30.3537C19.4675 30.8578 19.7913 31.2387 20.2016 31.4966C20.6118 31.7545 21.0734 31.8835 21.5862 31.8835C21.8705 31.8835 22.1401 31.8454 22.3951 31.7692C22.653 31.69 22.886 31.5743 23.094 31.4219C23.3021 31.2695 23.4779 31.0834 23.6215 30.8636C23.768 30.6409 23.8692 30.3859 23.9248 30.0987L25.2963 30.1031C25.2231 30.5457 25.0809 30.953 24.8699 31.3252C24.6619 31.6944 24.3937 32.0139 24.0655 32.2835C23.7402 32.5502 23.368 32.7568 22.949 32.9033C22.5299 33.0498 22.0727 33.1231 21.5775 33.1231C20.7979 33.1231 20.1034 32.9385 19.4938 32.5692C18.8843 32.197 18.4037 31.6651 18.052 30.9735C17.7033 30.2819 17.5289 29.457 17.5289 28.4987C17.5289 27.5374 17.7047 26.7125 18.0564 26.0238C18.4081 25.3322 18.8887 24.8018 19.4982 24.4325C20.1078 24.0603 20.8009 23.8742 21.5775 23.8742C22.0551 23.8742 22.5006 23.9431 22.9138 24.0809C23.3299 24.2157 23.7036 24.4149 24.0347 24.6787C24.3659 24.9395 24.6399 25.2589 24.8567 25.637C25.0736 26.0121 25.2201 26.4414 25.2963 26.925ZM26.8162 33V26.248H28.0866V27.3206H28.1569C28.28 26.9572 28.4969 26.6715 28.8075 26.4634C29.1211 26.2524 29.4757 26.1469 29.8713 26.1469C29.9534 26.1469 30.0501 26.1498 30.1614 26.1557C30.2757 26.1615 30.3651 26.1689 30.4296 26.1777V27.4349C30.3768 27.4202 30.283 27.4041 30.1482 27.3865C30.0134 27.366 29.8786 27.3557 29.7438 27.3557C29.4332 27.3557 29.1562 27.4217 28.913 27.5536C28.6727 27.6825 28.4822 27.8627 28.3415 28.0942C28.2009 28.3228 28.1305 28.5837 28.1305 28.8767V33H26.8162ZM34.2353 33.1363C33.57 33.1363 32.9971 32.9941 32.5165 32.7099C32.0388 32.4227 31.6696 32.0197 31.4087 31.501C31.1509 30.9794 31.0219 30.3684 31.0219 29.668C31.0219 28.9763 31.1509 28.3668 31.4087 27.8393C31.6696 27.3118 32.0329 26.9 32.4989 26.6041C32.9678 26.3081 33.5158 26.1601 34.1429 26.1601C34.5239 26.1601 34.8932 26.2231 35.2507 26.3491C35.6082 26.4751 35.9291 26.6729 36.2134 26.9425C36.4977 27.2122 36.7218 27.5624 36.8859 27.9931C37.0501 28.421 37.1321 28.9412 37.1321 29.5537V30.0196H31.7648V29.035H35.8441C35.8441 28.6892 35.7738 28.3829 35.6331 28.1162C35.4925 27.8466 35.2947 27.6342 35.0397 27.4788C34.7877 27.3235 34.4917 27.2459 34.1517 27.2459C33.7825 27.2459 33.4601 27.3367 33.1847 27.5184C32.9121 27.6972 32.7011 27.9316 32.5517 28.2217C32.4051 28.5089 32.3319 28.821 32.3319 29.158V29.9273C32.3319 30.3786 32.411 30.7625 32.5692 31.079C32.7304 31.3955 32.9546 31.6373 33.2418 31.8043C33.529 31.9684 33.8645 32.0505 34.2484 32.0505C34.4975 32.0505 34.7247 32.0153 34.9298 31.945C35.1349 31.8717 35.3122 31.7633 35.4617 31.6197C35.6112 31.4761 35.7254 31.2988 35.8046 31.0878L37.0486 31.312C36.949 31.6783 36.7702 31.9992 36.5123 32.2747C36.2573 32.5472 35.9364 32.7597 35.5496 32.9121C35.1657 33.0615 34.7276 33.1363 34.2353 33.1363ZM41.118 33.1319C40.573 33.1319 40.0865 32.9927 39.6586 32.7143C39.2337 32.4329 38.8996 32.0329 38.6564 31.5142C38.4161 30.9926 38.2959 30.3669 38.2959 29.6372C38.2959 28.9075 38.4175 28.2833 38.6608 27.7646C38.9069 27.2459 39.2439 26.8488 39.6718 26.5733C40.0997 26.2978 40.5847 26.1601 41.1268 26.1601C41.5459 26.1601 41.8829 26.2304 42.1379 26.3711C42.3958 26.5088 42.595 26.67 42.7357 26.8546C42.8793 27.0392 42.9907 27.2019 43.0698 27.3426H43.1489V23.9973H44.4633V33H43.1797V31.9494H43.0698C42.9907 32.093 42.8764 32.2571 42.7269 32.4417C42.5804 32.6264 42.3782 32.7875 42.1203 32.9253C41.8624 33.063 41.5283 33.1319 41.118 33.1319ZM41.4082 32.0109C41.7862 32.0109 42.1056 31.9113 42.3665 31.712C42.6302 31.5098 42.8295 31.2299 42.9643 30.8724C43.102 30.5149 43.1709 30.0987 43.1709 29.624C43.1709 29.1551 43.1035 28.7448 42.9687 28.3932C42.8339 28.0415 42.6361 27.7675 42.3752 27.5711C42.1144 27.3748 41.7921 27.2766 41.4082 27.2766C41.0125 27.2766 40.6829 27.3792 40.4191 27.5843C40.1554 27.7895 39.9561 28.0693 39.8213 28.4239C39.6894 28.7785 39.6235 29.1786 39.6235 29.624C39.6235 30.0753 39.6909 30.4812 39.8257 30.8416C39.9605 31.2021 40.1597 31.4878 40.4235 31.6988C40.6902 31.9069 41.0184 32.0109 41.4082 32.0109ZM46.3392 33V26.248H47.6535V33H46.3392ZM47.003 25.2062C46.7744 25.2062 46.578 25.13 46.4139 24.9776C46.2527 24.8223 46.1721 24.6377 46.1721 24.4237C46.1721 24.2069 46.2527 24.0222 46.4139 23.8699C46.578 23.7145 46.7744 23.6369 47.003 23.6369C47.2315 23.6369 47.4264 23.7145 47.5876 23.8699C47.7517 24.0222 47.8338 24.2069 47.8338 24.4237C47.8338 24.6377 47.7517 24.8223 47.5876 24.9776C47.4264 25.13 47.2315 25.2062 47.003 25.2062ZM52.5736 26.248V27.303H48.8855V26.248H52.5736ZM49.8745 24.6303H51.1889V31.0175C51.1889 31.2724 51.227 31.4644 51.3032 31.5933C51.3794 31.7193 51.4776 31.8058 51.5977 31.8527C51.7208 31.8966 51.8541 31.9186 51.9977 31.9186C52.1032 31.9186 52.1955 31.9113 52.2747 31.8966C52.3538 31.882 52.4153 31.8703 52.4593 31.8615L52.6967 32.9472C52.6205 32.9766 52.512 33.0059 52.3714 33.0352C52.2307 33.0674 52.0549 33.085 51.8439 33.0879C51.4981 33.0938 51.1757 33.0322 50.8768 32.9033C50.5779 32.7743 50.3361 32.5751 50.1515 32.3055C49.9669 32.0358 49.8745 31.6974 49.8745 31.29V24.6303Z" fill="black"/>
<path d="M299.385 40.3474H289.907V23.3154H299.385V40.3474Z" fill="#FF5F00"/>
<path d="M290.509 31.8313C290.509 28.3762 292.127 25.2992 294.646 23.3161C292.739 21.812 290.38 20.9971 287.953 21C281.97 21 277.122 25.8498 277.122 31.8313C277.122 37.8129 281.97 42.6627 287.952 42.6627C290.38 42.6656 292.739 41.8507 294.645 40.3466C292.127 38.3634 290.509 35.2865 290.509 31.8313Z" fill="#EB001B"/>
<path d="M312.17 31.8313C312.17 37.8129 307.322 42.6627 301.34 42.6627C298.912 42.6656 296.553 41.8507 294.646 40.3466C297.165 38.3634 298.783 35.2865 298.783 31.8313C298.783 28.3762 297.165 25.2992 294.646 23.3161C296.553 21.812 298.912 20.9971 301.34 21C307.322 21 312.17 25.8498 312.17 31.8313Z" fill="#F79E1B"/>
</g>
<defs>
<linearGradient id="paint0_linear_1_461" x1="164" y1="0" x2="164" y2="192" gradientUnits="userSpaceOnUse">
<stop stop-color="#9EC7CB"/>
<stop offset="1" stop-color="#FFC16E"/>
</linearGradient>
<linearGradient id="paint1_linear_1_461" x1="74" y1="0" x2="34" y2="63" gradientUnits="userSpaceOnUse">
<stop stop-color="#FFC16E" stop-opacity="0.4"/>
<stop offset="1" stop-color="#9EC7CB"/>
</linearGradient>
<linearGradient id="paint2_linear_1_461" x1="268" y1="57.3704" x2="-8.50001" y2="149" gradientUnits="userSpaceOnUse">
<stop stop-color="#9EC7CB" stop-opacity="0.7"/>
<stop offset="0.9999" stop-color="#FFC16E" stop-opacity="0.5"/>
<stop offset="1" stop-color="#F2C335" stop-opacity="0.7"/>
</linearGradient>
<clipPath id="clip0_1_461">
<rect width="328" height="192" rx="15" fill="white"/>
</clipPath>
</defs>
</svg>
